<?xml version="1.0" standalone="no"?><!DOCTYPE svg PUBLIC "-//W3C//DTD SVG 1.1//EN" "http://www.w3.org/Graphics/SVG/1.1/DTD/svg11.dtd"><svg t="1762595423696" class="icon" viewBox="0 0 1212 1024" version="1.1" xmlns="http://www.w3.org/2000/svg" p-id="16975" xmlns:xlink="http://www.w3.org/1999/xlink" width="236.71875" height="200"><path d="M1179.167 960.366H32.914a32.037 32.037 0 0 0-31.87 31.932c0 17.565 14.107 31.702 31.87 31.702H1179.43a32.037 32.037 0 0 0 31.869-31.953c0-17.554-14.367-31.692-32.13-31.692zM96.653 832.554a32.037 32.037 0 0 0-31.87 31.953 32.037 32.037 0 0 0 31.87 31.953H1115.43a32.037 32.037 0 0 0 31.869-31.953 32.037 32.037 0 0 0-31.87-31.953h-95.608V452.545h95.609a31.451 31.451 0 0 0 30.04-21.734 31.744 31.744 0 0 0-10.971-35.62L625.11 8.903a31.681 31.681 0 0 0-38.4 0L77.322 395.2c-10.971 8.38-15.412 22.518-10.971 35.61a31.692 31.692 0 0 0 30.04 21.734H192v380.009H96.653z m413.78 0V452.545h190.955v380.009H510.433z m445.91 0H765.388V452.545h190.955v380.009zM606.04 74.376l414.563 314.274H191.478L606.04 74.376z m-350.302 378.17h190.955v380.008H255.739V452.545z" p-id="16976" data-spm-anchor-id="a313x.search_index.0.i15.81863a81k2i18R" class="selected" fill="#000000"></path></svg>