<?xml version="1.0" standalone="no"?><!DOCTYPE svg PUBLIC "-//W3C//DTD SVG 1.1//EN" "http://www.w3.org/Graphics/SVG/1.1/DTD/svg11.dtd"><svg t="1762594488618" class="icon" viewBox="0 0 1024 1024" version="1.1" xmlns="http://www.w3.org/2000/svg" p-id="4591" xmlns:xlink="http://www.w3.org/1999/xlink" width="200" height="200"><path d="M512 74.887967c183.767635 0 332.481328 148.713693 332.481328 333.012448 0 132.248963-173.145228 396.746888-269.278008 510.937759-15.93361 18.589212-38.771784 29.211618-63.20332 29.211619-23.900415 0-47.80083-10.622407-63.20332-29.211619-96.6639-114.190871-269.278008-378.157676-269.278008-510.937759 0-183.236515 148.713693-333.012448 332.481328-333.012448z m15.40249 804.116182c103.568465-122.688797 254.406639-367.004149 254.406639-470.572614 0-149.244813-121.095436-270.340249-269.809129-270.340249S241.659751 258.655602 241.659751 408.431535c0 103.568465 150.838174 347.883817 254.406639 470.572614 4.248963 4.780083 9.560166 7.435685 15.40249 7.435685 6.904564 0 12.215768-2.655602 15.93361-7.435685zM512 242.721992c80.73029 0 145.526971 65.327801 145.526971 145.526971s-65.327801 145.526971-145.526971 145.526971C431.26971 533.775934 366.473029 468.448133 366.473029 388.248963c0-80.73029 64.79668-145.526971 145.526971-145.526971z m0 228.912863c45.676349 0 83.385892-37.709544 83.385892-83.385892S557.676349 304.863071 512 304.863071s-83.385892 37.709544-83.385892 83.385892 37.178423 83.385892 83.385892 83.385892z" p-id="4592"></path></svg>