<?xml version="1.0" standalone="no"?><!DOCTYPE svg PUBLIC "-//W3C//DTD SVG 1.1//EN" "http://www.w3.org/Graphics/SVG/1.1/DTD/svg11.dtd"><svg t="1762594571591" class="icon" viewBox="0 0 1024 1024" version="1.1" xmlns="http://www.w3.org/2000/svg" p-id="10793" xmlns:xlink="http://www.w3.org/1999/xlink" width="200" height="200"><path d="M512 598.528a77.7216 77.7216 0 0 1-30.208-6.144L107.008 427.008a67.9424 67.9424 0 0 1-41.472-60.928 67.1232 67.1232 0 0 1 39.424-61.952l375.296-177.664a76.3392 76.3392 0 0 1 63.488 0l374.784 177.664a66.9184 66.9184 0 0 1-2.048 122.88l-374.784 165.376a70.0416 70.0416 0 0 1-29.696 6.144z m0-413.696a8.704 8.704 0 0 0-3.584 0.512L133.12 363.52c-1.536 0.512-2.048 1.024-2.048 1.536a15.36 15.36 0 0 0 2.048 1.536l375.296 165.376a7.5776 7.5776 0 0 0 6.656 0l374.784-165.376a3.5328 3.5328 0 0 0 2.048-1.536 15.36 15.36 0 0 0-2.048-1.536l-374.784-177.664a4.352 4.352 0 0 0-3.072-1.024z" fill="#444444" p-id="10794"></path><path d="M512 905.216a34.3552 34.3552 0 0 1-14.336-3.072L245.76 781.824a67.8912 67.8912 0 0 1-38.4-60.928V457.728a33.28 33.28 0 0 1 66.56 0v262.656l238.08 114.688 237.568-113.664 1.024-264.192a33.28 33.28 0 1 1 66.56 0v262.656a67.328 67.328 0 0 1-38.4 60.928L527.36 901.12a30.1056 30.1056 0 0 1-15.36 4.096z" fill="#444444" p-id="10795"></path><path d="M918.016 716.288a35.072 35.072 0 0 1-48.64-32.768V491.52l79.36-33.28v211.968a49.5104 49.5104 0 0 1-30.72 46.08z" fill="#00B65F" p-id="10796"></path></svg>