<?xml version="1.0" standalone="no"?><!DOCTYPE svg PUBLIC "-//W3C//DTD SVG 1.1//EN" "http://www.w3.org/Graphics/SVG/1.1/DTD/svg11.dtd"><svg t="1757645064754" class="icon" viewBox="0 0 1024 1024" version="1.1" xmlns="http://www.w3.org/2000/svg" p-id="8741" xmlns:xlink="http://www.w3.org/1999/xlink" width="200" height="200"><path d="M512 0C229.205333 0 0 229.205333 0 512s229.205333 512 512 512 512-229.205333 512-512S794.794667 0 512 0zM314.410667 186.794667c22.4 0 40.405333 18.389333 40.405333 40.405333s-18.005333 40.405333-40.405333 40.405333a40.533333 40.533333 0 0 1-40.405334-40.405333c0-22.4 18.005333-40.405333 40.405334-40.405333z m-30.805334 129.621333h61.610667v428.416H283.605333V316.416z m151.978667 0h166.4c158.378667 0 228.010667 113.194667 228.010667 214.4 0 109.994667-86.016 214.4-227.2 214.4h-167.210667V316.416z m61.610667 55.594667v317.610666h98.005333c139.605333 0 171.605333-105.984 171.605333-158.805333 0-86.016-54.784-158.805333-174.805333-158.805333h-94.805333z" p-id="8742" fill="#2c2c2c"></path></svg>