<?xml version="1.0" standalone="no"?><!DOCTYPE svg PUBLIC "-//W3C//DTD SVG 1.1//EN" "http://www.w3.org/Graphics/SVG/1.1/DTD/svg11.dtd"><svg t="1762607103135" class="icon" viewBox="0 0 1024 1024" version="1.1" xmlns="http://www.w3.org/2000/svg" p-id="19770" xmlns:xlink="http://www.w3.org/1999/xlink" width="200" height="200"><path d="M334.635 587.093c-19.67 0.214-39.296-0.554-58.88-2.218V368.64c11.221-0.768 24.789-1.152 41.856-1.28l25.216-0.085c73.557 0 114.986 37.93 114.986 106.24 0 69.205-47.018 113.536-123.136 113.536h-0.042zM896.043 0h-768a128 128 0 0 0-128 128v768a128 128 0 0 0 128 128h768a128 128 0 0 0 128-128V128a128 128 0 0 0-128-128z m-249.6 888.79l-3.798 5.76c-10.752 4.906-27.861 7.85-44.288 7.85-52.48 0-96.682-20.224-126.25-55.808-35.2-40.576-87.51-118.144-136.704-205.824-28.331 0-38.912-0.213-52.608-0.896l-6.912-0.512v144.81c0 48.769 7.85 61.91 31.616 65.494l47.104 6.4 5.546 6.4v26.325l-6.656 6.4a3271.765 3271.765 0 0 0-115.712-2.688c-24.448 0-49.877 0.64-79.573 1.622l-29.781 1.109-6.571-6.4v-26.368l5.248-6.272 34.39-6.4c24.063-4.565 32-17.45 32-65.408V426.24c0-47.957-7.937-60.885-31.873-65.45l-34.474-6.443-5.504-6.187v-26.368l6.656-6.4a2519.594 2519.594 0 0 0 157.568-0.47 2282.752 2282.752 0 0 1 73.301-1.322c114.475 0 188.544 55.68 188.544 155.392 0 70.4-53.376 138.667-124.544 159.445 39.296 68.523 88.661 135.851 132.779 184.192 26.197 28.288 56.704 46.08 84.096 46.08l6.4 6.4v23.68z m223.616-586.454c0 19.37-0.342 28.587-1.451 38.827a169.856 169.856 0 0 1-5.76 30.677c-7.936 24.576-20.608 42.24-39.893 55.424-19.2 13.099-43.819 20.181-70.4 20.181-27.222 0-50.39-6.272-69.376-18.901-19.115-12.672-32.811-31.573-40.96-56.32a107.52 107.52 0 0 1-3.84-14.677 282.368 282.368 0 0 1-4.096-40.662 1020.373 1020.373 0 0 1 0-64.64c0.469-13.61 1.834-27.221 4.181-40.618 0.939-5.078 2.176-9.942 3.797-14.678 8.192-24.789 21.888-43.648 41.003-56.32 18.987-12.672 42.24-18.944 69.461-18.944 13.995 0 26.667 1.664 38.059 4.95 11.35 3.328 21.504 7.85 30.421 13.738s16.512 12.672 22.912 20.48c6.315 7.68 11.52 16 15.446 24.363 3.114 5.547 1.92 11.52-4.48 15.36l-32.427 13.27c-5.973 3.327-12.032 1.151-14.976-4.737-7.936-14.549-13.568-21.546-22.016-26.88a55.296 55.296 0 0 0-32.896-8.661c-14.72 0-21.504 2.261-32.384 9.941a53.59 53.59 0 0 0-21.163 28.715 91.943 91.943 0 0 0-4.352 22.528 829.227 829.227 0 0 0 0 99.84 91.943 91.943 0 0 0 4.352 22.528c2.774 10.581 9.472 19.712 18.688 25.6a58.648 58.648 0 0 0 34.902 10.027c12.458 0.341 24.704-3.115 35.2-9.856 8.576-5.803 14.89-14.379 17.834-24.32l1.792-6.23a105.633 105.633 0 0 0 2.646-12.117c0.896-5.547 1.109-10.24 1.109-22.57h-49.365l-0.128-0.214c-6.528 0-10.88-4.352-10.88-10.88v-30.08c0-6.443 4.352-10.88 10.88-10.88h97.28c6.442 0 10.88 4.437 10.88 10.88v25.856z" fill="#000000" p-id="19771" data-spm-anchor-id="a313x.search_index.0.i17.81863a81k2i18R" class="selected"></path></svg>