<?xml version="1.0" standalone="no"?><!DOCTYPE svg PUBLIC "-//W3C//DTD SVG 1.1//EN" "http://www.w3.org/Graphics/SVG/1.1/DTD/svg11.dtd"><svg t="1762575221160" class="icon" viewBox="0 0 1024 1024" version="1.1" xmlns="http://www.w3.org/2000/svg" p-id="8795" xmlns:xlink="http://www.w3.org/1999/xlink" width="200" height="200"><path d="M512 960q11.008 0 21.952-0.512 11.008-0.576 21.952-1.664 10.944-1.088 21.824-2.688t21.696-3.712q10.752-2.176 21.44-4.864 10.688-2.624 21.184-5.824 10.496-3.2 20.864-6.912 10.368-3.712 20.48-7.936 10.24-4.224 20.16-8.96 9.92-4.608 19.648-9.856 9.664-5.12 19.136-10.816 9.408-5.632 18.56-11.776 9.152-6.08 17.92-12.608 8.896-6.592 17.408-13.568t16.64-14.336q8.128-7.424 15.936-15.168 7.744-7.808 15.168-16 7.36-8.064 14.336-16.64 7.04-8.448 13.568-17.28t12.608-17.984q6.144-9.152 11.776-18.56 5.632-9.472 10.88-19.2 5.12-9.6 9.856-19.584 4.672-9.92 8.96-20.096 4.16-10.176 7.872-20.48 3.712-10.432 6.912-20.928 3.2-10.496 5.824-21.184 2.688-10.688 4.864-21.44 2.112-10.816 3.712-21.696t2.688-21.76q1.088-11.008 1.664-22.016Q960 523.008 960 512q0-11.008-0.512-21.952-0.576-11.008-1.664-21.952-1.088-10.944-2.688-21.824t-3.712-21.696q-2.176-10.752-4.864-21.44-2.624-10.688-5.824-21.184-3.2-10.496-6.912-20.864-3.712-10.368-7.936-20.48-4.224-10.24-8.96-20.16-4.608-9.92-9.856-19.648-5.12-9.664-10.816-19.136-5.632-9.408-11.776-18.56-6.08-9.152-12.608-17.92-6.592-8.896-13.568-17.408t-14.336-16.64q-7.424-8.128-15.168-15.936-7.808-7.744-16-15.168-8.064-7.36-16.64-14.336-8.448-7.04-17.28-13.504-8.832-6.592-17.984-12.672-9.152-6.144-18.56-11.776-9.472-5.632-19.2-10.88-9.6-5.12-19.584-9.856-9.92-4.672-20.096-8.96-10.176-4.16-20.48-7.872-10.432-3.712-20.928-6.912-10.496-3.2-21.184-5.824-10.688-2.688-21.44-4.8-10.816-2.176-21.696-3.84-10.88-1.536-21.76-2.624-11.008-1.088-22.016-1.664Q523.008 64 512 64q-11.008 0-21.952 0.512-11.008 0.576-21.952 1.664-10.944 1.088-21.824 2.688t-21.696 3.776q-10.752 2.112-21.44 4.8-10.688 2.688-21.184 5.824-10.496 3.2-20.864 6.912-10.368 3.712-20.48 7.936-10.24 4.224-20.16 8.96-9.92 4.672-19.648 9.856-9.664 5.12-19.136 10.816-9.408 5.632-18.56 11.776-9.152 6.08-17.92 12.672-8.896 6.528-17.408 13.44-8.512 7.04-16.64 14.4-8.128 7.424-15.936 15.168-7.744 7.808-15.168 16-7.36 8.064-14.336 16.64-7.04 8.448-13.504 17.28-6.592 8.832-12.672 17.984-6.144 9.152-11.776 18.56-5.632 9.472-10.88 19.2-5.12 9.6-9.856 19.584-4.672 9.92-8.96 20.096-4.16 10.176-7.872 20.48-3.712 10.432-6.912 20.928-3.2 10.496-5.824 21.184-2.688 10.688-4.8 21.44-2.176 10.816-3.84 21.696-1.536 10.88-2.624 21.76-1.088 11.008-1.664 22.016Q64 500.992 64 512q0 11.008 0.512 21.952 0.576 11.008 1.664 21.952 1.088 10.944 2.688 21.824t3.776 21.696q2.112 10.752 4.8 21.44 2.688 10.688 5.824 21.184 3.2 10.496 6.912 20.864 3.712 10.368 7.936 20.48 4.224 10.24 8.96 20.16 4.672 9.92 9.856 19.648 5.12 9.664 10.816 19.136 5.632 9.408 11.776 18.56 6.08 9.152 12.672 17.92 6.528 8.896 13.44 17.408 7.04 8.512 14.4 16.64 7.424 8.128 15.168 15.936 7.808 7.744 16 15.168 8.064 7.36 16.64 14.336 8.448 7.04 17.28 13.568t17.984 12.608q9.152 6.144 18.56 11.776 9.472 5.632 19.2 10.88 9.6 5.12 19.584 9.856 9.92 4.672 20.096 8.96 10.176 4.16 20.48 7.872 10.432 3.712 20.928 6.912 10.496 3.2 21.184 5.824 10.688 2.688 21.44 4.864 10.816 2.112 21.696 3.712t21.76 2.688q11.008 1.088 22.016 1.664Q500.992 960 512 960z m213.76-531.456q-4.096 11.136-11.392 22.336c5.824 10.496 19.328 33.664 24.768 62.976 2.944 15.872 17.472 93.952-56.64 161.472-59.072 53.952-128.384 41.728-155.904 34.368-33.92 29.248-78.848 53.12-146.688 53.12-76.224 0-175.488-14.72-165.952-24.448 18.112-18.752 292.48-306.688 307.008-339.968a56.32 56.32 0 0 0-14.528-67.392c-11.2-8.64-18.944-10.304-36.48-15.36 10.432-5.312 46.912-24 101.248-26.944 54.08-3.008 90.688 3.776 115.84 20.416 12.544 8.192 25.216 20.224 35.648 45.888l45.44 5.12-35.84 36.352q-1.088 17.92-6.464 32z" p-id="8796"></path></svg>